<?xml version="1.0" encoding="iso-8859-1"?>
<!-- Generator: Adobe Illustrator 19.0.0, SVG Export Plug-In . SVG Version: 6.00 Build 0)  -->
<svg version="1.1" id="Capa_1" xmlns="http://www.w3.org/2000/svg" xmlns:xlink="http://www.w3.org/1999/xlink" x="0px" y="0px"
	 viewBox="0 0 512 512" style="enable-background:new 0 0 512 512;" xml:space="preserve">
<path style="fill:#E95454;" d="M512,132.928v-86.88c0-20.4-16.544-36.944-36.944-36.944H36.944C16.544,9.104,0,25.632,0,46.048
	v86.896h512V132.928z"/>
<path style="fill:#E5E5E5;" d="M0,465.952c0,20.4,16.544,36.944,36.944,36.944h438.112c20.4,0,36.944-16.544,36.944-36.944V132.928
	H0V465.952z"/>
<circle style="fill:#FFDB70;" cx="67.232" cy="71.008" r="23.84"/>
<circle style="fill:#FDBC4B;" cx="134.56" cy="71.008" r="23.856"/>
<circle style="fill:#FFDB70;" cx="201.888" cy="71.008" r="23.84"/>
<g>
	<path style="fill:#ED6362;" d="M339.504,71.008c0,10.208,8.256,18.48,18.464,18.48h82.864c10.208,0,18.464-8.272,18.464-18.48
		s-8.256-18.464-18.464-18.464h-82.864C347.76,52.544,339.504,60.816,339.504,71.008z"/>
	<path style="fill:#ED6362;" d="M262.896,71.008c0,10.208,8.256,18.48,18.464,18.48h21.632c10.208,0,18.464-8.272,18.464-18.48
		s-8.256-18.464-18.464-18.464H281.36C271.152,52.544,262.896,60.816,262.896,71.008z"/>
</g>
<path style="fill:#F3F3F3;" d="M322.352,132.928c-16.384,0-29.68,12.4-29.68,27.696s13.28,27.696,29.68,27.696h13.28
	c13.728,0,24.896,10.48,24.816,23.28v0.304c0,0.576,0.016,1.136,0.048,1.696c0.816,12.624-9.92,23.264-23.472,23.264H305.44
	c-16.064,0-30.48,11.232-31.312,26.208c-0.896,15.984,12.72,29.184,29.632,29.184h21.664c13.792,0,24.96,10.48,24.88,23.36
	l-0.016,1.6v0.336c0.08,13.552-11.712,24.624-26.224,24.624h-70.048c-16.064,0-30.464,11.232-31.312,26.208
	c-0.896,15.968,12.72,29.184,29.632,29.184H350.8c14.336,0,25.04,11.248,24.864,24.624c0,0.112,0,0.224,0,0.336s0,0.224,0,0.336
	c0.16,13.392-10.528,24.624-24.864,24.624h-24.528c-16.064,0-30.464,11.232-31.312,26.208c-0.896,15.968,12.72,29.184,29.632,29.184
	h150.416c20.416,0,36.96-16.544,36.96-36.96V132.928H322.352z"/>
<g>
	<path style="fill:#6F7070;" d="M133.776,401.04l-81.504-69.152c-4.096-3.488-6.464-8.592-6.464-13.984s2.368-10.496,6.464-13.984
		l81.504-69.152c7.728-6.56,19.296-5.584,25.84,2.112c6.56,7.728,5.6,19.296-2.112,25.84L92.48,317.904l65.024,55.168
		c7.712,6.56,8.672,18.112,2.112,25.84C153.088,406.64,141.52,407.6,133.776,401.04z"/>
	<path style="fill:#6F7070;" d="M352.384,398.928c-6.56-7.728-5.6-19.296,2.112-25.84l65.024-55.168l-65.024-55.168
		c-7.712-6.56-8.672-18.112-2.112-25.84c6.544-7.696,18.128-8.672,25.84-2.112l81.504,69.152c4.096,3.488,6.464,8.592,6.464,13.984
		s-2.368,10.496-6.464,13.984l-81.504,69.152C370.48,407.6,358.912,406.64,352.384,398.928z"/>
	<path style="fill:#6F7070;" d="M204.672,445.2c-9.392-3.792-13.936-14.48-10.144-23.856l88.928-220.56
		c3.776-9.392,14.432-13.904,23.856-10.16c9.392,3.792,13.936,14.48,10.144,23.856l-88.912,220.56
		C224.8,444.352,214.208,448.992,204.672,445.2z"/>
</g>
<g>
</g>
<g>
</g>
<g>
</g>
<g>
</g>
<g>
</g>
<g>
</g>
<g>
</g>
<g>
</g>
<g>
</g>
<g>
</g>
<g>
</g>
<g>
</g>
<g>
</g>
<g>
</g>
<g>
</g>
</svg>
